@startuml
class Usuario {
  -user_id: int
  -nome: String
  -email: String
  -senha: String
  -foto: BLOB
  -Usuario_TIPO: Char

  +register(String, String, String, BLOB): Usuario
  +verifyEmail(String): boolean
  +login(String, String): boolean
  +changePwd(String, String): boolean
  +editProfile(String, BLOB): void
}

class Carona {
  -carona_id: int
  -origem: String
  -destino: String
  -horario: datetime
  -vagas: int

  +publicateRide(String, String, datetime, int): Carona
  +cancelRide(int): boolean
  +editRide(String, String, datetime, int): boolean
}

class Reserva_Pagamento {
  -reserva_id: int
  -data_reserva: datetime
  -status: String
  -pagamento_id: int
  -valor: decimal
  -data_pagamento: datetime

  +reserveRide(int, int): Reserva_Pagamento
  +realizePayment(int, decimal, datetime): boolean
  +cancelReserve(int): boolean
}

class Review {
  -review_id: int
  -comentario: String
  -avaliacao: int

  +writeReview(int, String, int): Review
}

class Chat {
  -chat_id: int
  -timestamp: datetime
  -message: String

  +sendMsg(int, String): Chat
}

class Veiculo {
  -id_carro: int
  -modelo: String
  -ano: int
  -placa: String
  -cor: String

  +registerVehicle(String, int, String, String): Veiculo
  +editVehicle(int, String, int, String, String): boolean
  +removeVehicle(int): boolean
}

Usuario "1" *-- "0..1" Veiculo
Usuario "1" -- "0..*" Carona      
Carona "1" -- "0..*" Reserva_Pagamento 
Reserva_Pagamento "1" -- "0..1" Review
Carona "1" o-- "0..*" Chat         

@enduml
